<svg xmlns="http://www.w3.org/2000/svg" fill="none" viewBox="0 0 24 24" id="Pg-Papua-New-Guinea--Streamline-Flagpack" height="24" width="24">
  <desc>
    PG Papua New Guinea Streamline Icon: https://streamlinehq.com
  </desc>
  <path fill="#e11c1b" d="M1.5 3h21s1.5 0 1.5 1.5v15s0 1.5 -1.5 1.5H1.5s-1.5 0 -1.5 -1.5V4.5s0 -1.5 1.5 -1.5" stroke-width="0.75"></path>
  <path fill="#1d1d1d" fill-rule="evenodd" d="m0 3 24 18H0V3Z" clip-rule="evenodd" stroke-width="0.75"></path>
  <path fill="#eeeef6" fill-rule="evenodd" d="M5.312250000000001 16.701749999999997h0.9990000000000001l0.47550000000000003 -1.1205 0.558 1.113 1.02375 0.055499999999999994 -0.8744999999999999 0.9525 0.4485 1.14675 -1.1115 -0.639 -1.02675 0.645 0.38775000000000004 -1.1145 -0.87975 -1.03875Zm-3 -3h0.9990000000000001l0.47550000000000003 -1.1205 0.558 1.113 1.02375 0.055499999999999994 -0.8744999999999999 0.9525 0.4485 1.14675 -1.1115 -0.639 -1.02675 0.645 0.38775000000000004 -1.1145 -0.87975 -1.03875Zm3 -1.5h0.9990000000000001l0.47550000000000003 -1.1205 0.558 1.113 1.02375 0.055499999999999994 -0.8744999999999999 0.9525 0.4485 1.14675 -1.1115 -0.639 -1.02675 0.645 0.38775000000000004 -1.1145 -0.87975 -1.03875Z" clip-rule="evenodd" stroke-width="0.75"></path>
  <path fill="#eeeef6" fill-rule="evenodd" d="m7.283250000000001 15.423 0.687 -0.0225 0.2475 -0.70875 0.27825 0.705 0.63225 0.06 -0.56925 0.40275000000000005 0.45899999999999996 0.7124999999999999 -0.79575 -0.29775 -0.6900000000000001 0.3075 0.36375 -0.70275 -0.6127499999999999 -0.45599999999999996Zm1.5 -1.5 0.687 -0.0225 0.2475 -0.70875 0.27825 0.705 0.63225 0.06 -0.56925 0.40275000000000005 0.45899999999999996 0.7124999999999999 -0.79575 -0.29775 -0.6900000000000001 0.3075 0.36375 -0.70275 -0.6127499999999999 -0.45599999999999996Z" clip-rule="evenodd" stroke-width="0.75"></path>
  <path fill="#fbcd17" fill-rule="evenodd" d="M15.812999999999999 4.5s-2.31675 0.46199999999999997 -1.6665 3.6825h-0.33s0.026250000000000002 -0.168 -0.29100000000000004 -0.267c-0.318 -0.0975 -0.255 -0.0615 -0.41850000000000004 0 -0.1635 0.0615 -1.161 0 -1.161 0v0.12375l0.705 0.3045s-0.0165 0.25425000000000003 0.27825 0.3945c0.2955 0.14100000000000001 0.51 0.20850000000000002 0.51 0.20850000000000002s0.043500000000000004 0.28049999999999997 -0.23325 0.28049999999999997 -1.389 -0.36 -1.785 0.5249999999999999A7.716 7.716 0 0 1 10.5 11.28825h0.5925l-0.15825 0.198h0.6675l-0.18 0.10200000000000001s0.82575 -0.009000000000000001 0.89025 -0.10200000000000001c0.0645 -0.09375 0 0.25275000000000003 0 0.25275000000000003s0.8002499999999999 -0.36524999999999996 0.8444999999999999 -0.45075l0.3735 0.2565 0.10649999999999998 -0.43424999999999997 0.40125 0.17775 0.10874999999999999 -0.41325s1.134 1.89675 1.9942499999999999 1.7879999999999998v-0.315l0.7845 0.315 0.09975 -0.14024999999999999s0.94875 0.38625 1.2405 0.42224999999999996l-0.20850000000000002 -0.42224999999999996h0.20850000000000002l-0.20850000000000002 -0.78375h0.20850000000000002l-0.41625 -0.6285 0.11624999999999999 -0.1695 -0.07725 -0.22349999999999998s1.5270000000000001 0.486 1.458 1.26c-0.069 0.77325 -0.7484999999999999 1.0859999999999999 -0.7484999999999999 1.0859999999999999s-0.6525 0.1995 -1.24125 0.15675c0 0 0.46725 0.552 1.4565 0.3645s1.317 -1.146 1.317 -1.146 0.45375 0.942 0.08025 1.43775c-0.3735 0.495 -2.0355 0.8430000000000001 -2.0355 0.8430000000000001s0.6015 0.3525 1.1715 0.26249999999999996c0.5700000000000001 -0.09075 1.4572500000000002 -0.58725 1.629 -1.39725 0.17250000000000001 -0.81 -0.5925 -2.3040000000000003 -0.9397499999999999 -2.47425l-0.13724999999999998 -0.5175 0.312 0.1245 -0.639 -1.56375 0.30974999999999997 0.0675 -0.9045 -1.125 0.249 -0.0765 -1.2494999999999998 -0.89775 0.3735 -0.099s-0.9232500000000001 -0.46799999999999997 -1.977 0.099l0.00975 -0.19575 -0.27675 0.0465 0.0165 -0.21525 0.27525 -0.41700000000000004 -0.41250000000000003 -0.159s0.333 -0.5025000000000001 0.2835 -0.495c0 0 -0.37275 0.10649999999999998 -0.35100000000000003 0.06225 0 0 0.1875 -0.48375 0.138 -0.471 0 0 -0.43199999999999994 0.14700000000000002 -0.3675 0.07350000000000001l0.165 -0.2955L15.81375 4.5Z" clip-rule="evenodd" stroke-width="0.75"></path>
</svg>